<svg width="125" height="30" viewBox="0 0 165 50" fill="none" xmlns="http://www.w3.org/2000/svg">
<path d="M91.3007 0.00568392C90.1858 -0.0748846 89.2518 0.710658 88.978 1.75301L88.401 3.98879H88.4793C97.1195 3.98879 104.127 11.2047 104.127 20.1025V20.1831L106.298 19.5889C107.315 19.3119 108.073 18.3451 107.994 17.197C107.378 7.99204 100.239 0.640161 91.3007 0.00568392ZM102.552 20.6161C102.557 20.4449 102.562 20.2737 102.562 20.1025C102.562 12.091 96.2589 5.60016 88.4793 5.60016C88.313 5.60016 88.1467 5.60519 87.9805 5.61023L83.0271 24.7301C82.9538 25.0071 83.032 25.3042 83.2276 25.5056C83.4232 25.707 83.7117 25.7876 83.9806 25.7121L102.552 20.6161ZM91.6087 10.4343C92.0237 10.4343 92.4217 10.604 92.7152 10.9062C93.0086 11.2084 93.1735 11.6183 93.1735 12.0456C93.1735 12.473 93.0086 12.8829 92.7152 13.185C92.4217 13.4872 92.0237 13.657 91.6087 13.657C91.1937 13.657 90.7957 13.4872 90.5023 13.185C90.2088 12.8829 90.044 12.473 90.044 12.0456C90.044 11.6183 90.2088 11.2084 90.5023 10.9062C90.7957 10.604 91.1937 10.4343 91.6087 10.4343ZM94.7382 16.8797C94.7382 16.4524 94.9031 16.0425 95.1965 15.7403C95.4899 15.4381 95.8879 15.2684 96.3029 15.2684C96.7179 15.2684 97.1159 15.4381 97.4094 15.7403C97.7028 16.0425 97.8677 16.4524 97.8677 16.8797C97.8677 17.3071 97.7028 17.717 97.4094 18.0192C97.1159 18.3213 96.7179 18.4911 96.3029 18.4911C95.8879 18.4911 95.4899 18.3213 95.1965 18.0192C94.9031 17.717 94.7382 17.3071 94.7382 16.8797ZM87.6969 19.2968C87.6969 18.8694 87.8617 18.4596 88.1552 18.1574C88.4486 17.8552 88.8466 17.6854 89.2616 17.6854C89.6766 17.6854 90.0746 17.8552 90.3681 18.1574C90.6615 18.4596 90.8264 18.8694 90.8264 19.2968C90.8264 19.7242 90.6615 20.134 90.3681 20.4362C90.0746 20.7384 89.6766 20.9082 89.2616 20.9082C88.8466 20.9082 88.4486 20.7384 88.1552 20.4362C87.8617 20.134 87.6969 19.7242 87.6969 19.2968Z" fill="white"/>
<path d="M27.6271 15.536V38H22.1551V24.528L17.1311 38H12.7151L7.65913 24.496V38H2.18713V15.536H8.65112L14.9551 31.088L21.1951 15.536H27.6271ZM42.1861 38.224C40.0741 38.224 38.1328 37.7333 36.3621 36.752C34.6128 35.7707 33.2155 34.4053 32.1701 32.656C31.1461 30.8853 30.6341 28.9013 30.6341 26.704C30.6341 24.5067 31.1461 22.5333 32.1701 20.784C33.2155 19.0347 34.6128 17.6693 36.3621 16.688C38.1328 15.7067 40.0741 15.216 42.1861 15.216C44.2981 15.216 46.2288 15.7067 47.9781 16.688C49.7488 17.6693 51.1355 19.0347 52.1381 20.784C53.1621 22.5333 53.6741 24.5067 53.6741 26.704C53.6741 28.9013 53.1621 30.8853 52.1381 32.656C51.1141 34.4053 49.7275 35.7707 47.9781 36.752C46.2288 37.7333 44.2981 38.224 42.1861 38.224ZM42.1861 33.232C43.9781 33.232 45.4075 32.6347 46.4741 31.44C47.5621 30.2453 48.1061 28.6667 48.1061 26.704C48.1061 24.72 47.5621 23.1413 46.4741 21.968C45.4075 20.7733 43.9781 20.176 42.1861 20.176C40.3728 20.176 38.9221 20.7627 37.8341 21.936C36.7675 23.1093 36.2341 24.6987 36.2341 26.704C36.2341 28.688 36.7675 30.2773 37.8341 31.472C38.9221 32.6453 40.3728 33.232 42.1861 33.232ZM76.8144 38H71.3424L62.1904 24.144V38H56.7184V15.536H62.1904L71.3424 29.456V15.536H76.8144V38Z" fill="#D68240"/>
<path d="M124.327 33.032H115.943L114.599 37H108.871L116.999 14.536H123.335L131.463 37H125.671L124.327 33.032ZM122.919 28.808L120.135 20.584L117.383 28.808H122.919ZM142.353 14.536C144.721 14.536 146.79 15.0053 148.561 15.944C150.332 16.8827 151.697 18.2053 152.657 19.912C153.638 21.5973 154.129 23.5493 154.129 25.768C154.129 27.9653 153.638 29.9173 152.657 31.624C151.697 33.3307 150.321 34.6533 148.529 35.592C146.758 36.5307 144.7 37 142.353 37H133.937V14.536H142.353ZM142.001 32.264C144.07 32.264 145.681 31.6987 146.833 30.568C147.985 29.4373 148.561 27.8373 148.561 25.768C148.561 23.6987 147.985 22.088 146.833 20.936C145.681 19.784 144.07 19.208 142.001 19.208H139.409V32.264H142.001ZM162.659 14.536V37H157.187V14.536H162.659Z" fill="#D68240"/>
</svg>
